<svg width="685" height="144" viewBox="0 0 685 144" fill="none" xmlns="http://www.w3.org/2000/svg">
<path d="M122.317 62L104.189 1.456H119.853L132.349 45.808H132.965L145.373 1.456H160.685L142.557 62H122.317ZM158.841 62L178.025 1.456H198.881L218.153 62H202.665L199.057 50.12H177.497L173.977 62H158.841ZM180.753 38.592H195.713L188.497 14.656H187.881L180.753 38.592ZM225.143 62V1.456H246.351C251.748 1.456 256.148 1.74933 259.551 2.336C262.953 2.864 265.623 3.80266 267.559 5.152C269.495 6.44267 270.873 8.26133 271.695 10.608C272.575 12.896 273.132 15.7707 273.367 19.232C273.601 22.6933 273.719 26.8587 273.719 31.728C273.719 36.5973 273.601 40.7627 273.367 44.224C273.132 47.6853 272.575 50.5893 271.695 52.936C270.873 55.224 269.495 57.0427 267.559 58.392C265.623 59.6827 262.953 60.6213 259.551 61.208C256.148 61.736 251.748 62 246.351 62H225.143ZM240.455 50.208H245.999C248.404 50.208 250.369 50.1493 251.895 50.032C253.42 49.856 254.623 49.504 255.503 48.976C256.441 48.3893 257.087 47.4507 257.439 46.16C257.849 44.8107 258.084 42.992 258.143 40.704C258.26 38.3573 258.319 35.3653 258.319 31.728C258.319 28.0907 258.26 25.128 258.143 22.84C258.084 20.4933 257.849 18.6747 257.439 17.384C257.028 16.0347 256.383 15.0667 255.503 14.48C254.623 13.8933 253.42 13.5413 251.895 13.424C250.369 13.3067 248.404 13.248 245.999 13.248H240.455V50.208ZM309.423 62.704C304.319 62.704 300.124 62.4107 296.839 61.824C293.612 61.1787 291.09 60.1813 289.271 58.832C287.452 57.424 286.103 55.5467 285.223 53.2C284.402 50.7947 283.874 47.832 283.639 44.312C283.463 40.792 283.375 36.5973 283.375 31.728C283.375 26.8587 283.463 22.664 283.639 19.144C283.874 15.624 284.402 12.6907 285.223 10.344C286.103 7.93867 287.452 6.06133 289.271 4.712C291.09 3.304 293.612 2.30666 296.839 1.71999C300.124 1.07466 304.319 0.751997 309.423 0.751997C314.468 0.751997 318.604 1.07466 321.831 1.71999C325.116 2.30666 327.698 3.304 329.575 4.712C331.452 6.06133 332.802 7.93867 333.623 10.344C334.444 12.6907 334.972 15.624 335.207 19.144C335.442 22.664 335.559 26.8587 335.559 31.728C335.559 36.5973 335.442 40.792 335.207 44.312C334.972 47.832 334.444 50.7947 333.623 53.2C332.802 55.5467 331.452 57.424 329.575 58.832C327.698 60.1813 325.116 61.1787 321.831 61.824C318.604 62.4107 314.468 62.704 309.423 62.704ZM309.423 50.912C311.535 50.912 313.236 50.8533 314.527 50.736C315.876 50.56 316.932 50.1787 317.695 49.592C318.458 48.9467 319.015 47.9493 319.367 46.6C319.719 45.2507 319.924 43.3733 319.983 40.968C320.1 38.5627 320.159 35.4827 320.159 31.728C320.159 27.9733 320.1 24.8933 319.983 22.488C319.924 20.0827 319.719 18.2053 319.367 16.856C319.015 15.5067 318.458 14.5387 317.695 13.952C316.932 13.3067 315.876 12.9253 314.527 12.808C313.236 12.632 311.535 12.544 309.423 12.544C307.37 12.544 305.668 12.632 304.319 12.808C302.97 12.9253 301.914 13.3067 301.151 13.952C300.388 14.5387 299.831 15.5067 299.479 16.856C299.127 18.2053 298.892 20.0827 298.775 22.488C298.716 24.8933 298.687 27.9733 298.687 31.728C298.687 35.4827 298.716 38.5627 298.775 40.968C298.892 43.3733 299.127 45.2507 299.479 46.6C299.831 47.9493 300.388 48.9467 301.151 49.592C301.914 50.1787 302.97 50.56 304.319 50.736C305.668 50.8533 307.37 50.912 309.423 50.912ZM346.658 62V1.456H367.866C373.263 1.456 377.663 1.74933 381.066 2.336C384.469 2.864 387.138 3.80266 389.074 5.152C391.01 6.44267 392.389 8.26133 393.21 10.608C394.09 12.896 394.647 15.7707 394.882 19.232C395.117 22.6933 395.234 26.8587 395.234 31.728C395.234 36.5973 395.117 40.7627 394.882 44.224C394.647 47.6853 394.09 50.5893 393.21 52.936C392.389 55.224 391.01 57.0427 389.074 58.392C387.138 59.6827 384.469 60.6213 381.066 61.208C377.663 61.736 373.263 62 367.866 62H346.658ZM361.97 50.208H367.514C369.919 50.208 371.885 50.1493 373.41 50.032C374.935 49.856 376.138 49.504 377.018 48.976C377.957 48.3893 378.602 47.4507 378.954 46.16C379.365 44.8107 379.599 42.992 379.658 40.704C379.775 38.3573 379.834 35.3653 379.834 31.728C379.834 28.0907 379.775 25.128 379.658 22.84C379.599 20.4933 379.365 18.6747 378.954 17.384C378.543 16.0347 377.898 15.0667 377.018 14.48C376.138 13.8933 374.935 13.5413 373.41 13.424C371.885 13.3067 369.919 13.248 367.514 13.248H361.97V50.208ZM400.755 62L419.939 1.456H440.795L460.067 62H444.579L440.971 50.12H419.411L415.891 62H400.755ZM422.667 38.592H437.627L430.411 14.656H429.795L422.667 38.592ZM467.057 62V1.456H497.065C500.995 1.456 504.163 1.896 506.569 2.776C509.033 3.59733 510.881 4.85866 512.113 6.56C513.403 8.20266 514.254 10.256 514.665 12.72C515.134 15.1253 515.369 17.8827 515.369 20.992C515.369 23.28 515.193 25.5973 514.841 27.944C514.489 30.232 513.726 32.344 512.553 34.28C511.438 36.1573 509.707 37.5947 507.361 38.592L516.513 62H500.585L492.049 37.8L495.921 39.912C495.393 40.2053 494.835 40.3813 494.249 40.44C493.721 40.4987 493.046 40.528 492.225 40.528H482.369V62H467.057ZM482.369 29.176H491.169C493.163 29.176 494.747 29.088 495.921 28.912C497.153 28.6773 498.062 28.2667 498.649 27.68C499.235 27.0933 499.617 26.272 499.793 25.216C499.969 24.16 500.057 22.8107 500.057 21.168C500.057 19.4667 499.969 18.088 499.793 17.032C499.675 15.976 499.323 15.184 498.737 14.656C498.209 14.0693 497.329 13.6587 496.097 13.424C494.923 13.1893 493.281 13.072 491.169 13.072H482.369V29.176ZM520.638 62L539.822 1.456H560.678L579.95 62H564.462L560.854 50.12H539.294L535.774 62H520.638ZM542.55 38.592H557.51L550.294 14.656H549.678L542.55 38.592ZM0.587844 143V82.456H15.8998V106.216H35.5238V82.456H50.8358V143H35.5238V118.976H15.8998V143H0.587844ZM57.7782 143L76.9622 82.456H97.8182L117.09 143H101.602L97.9942 131.12H76.4342L72.9142 143H57.7782ZM79.6902 119.592H94.6502L87.4342 95.656H86.8182L79.6902 119.592ZM148.368 143.704C143.792 143.704 139.979 143.411 136.928 142.824C133.877 142.179 131.384 141.152 129.448 139.744C127.571 138.336 126.133 136.459 125.136 134.112C124.197 131.765 123.552 128.832 123.2 125.312C122.848 121.792 122.672 117.597 122.672 112.728C122.672 107.859 122.848 103.664 123.2 100.144C123.552 96.624 124.197 93.6907 125.136 91.344C126.133 88.9973 127.571 87.12 129.448 85.712C131.384 84.304 133.877 83.3067 136.928 82.72C139.979 82.0747 143.792 81.752 148.368 81.752C150.128 81.752 151.947 81.8107 153.824 81.928C155.701 82.0453 157.52 82.2213 159.28 82.456C161.04 82.6907 162.536 82.984 163.768 83.336V94.336C161.949 94.16 160.277 94.0133 158.752 93.896C157.285 93.72 155.995 93.632 154.88 93.632C153.765 93.5733 152.827 93.544 152.064 93.544C149.365 93.544 147.136 93.6613 145.376 93.896C143.675 94.072 142.325 94.512 141.328 95.216C140.331 95.92 139.597 96.976 139.128 98.384C138.659 99.7333 138.336 101.581 138.16 103.928C138.043 106.216 137.984 109.149 137.984 112.728C137.984 116.248 138.043 119.181 138.16 121.528C138.336 123.875 138.659 125.752 139.128 127.16C139.597 128.568 140.331 129.624 141.328 130.328C142.325 130.973 143.675 131.413 145.376 131.648C147.136 131.824 149.365 131.912 152.064 131.912C153.883 131.912 155.936 131.853 158.224 131.736C160.512 131.56 162.477 131.355 164.12 131.12V142.384C162.829 142.619 161.275 142.824 159.456 143C157.637 143.235 155.76 143.411 153.824 143.528C151.947 143.645 150.128 143.704 148.368 143.704ZM174.268 143V82.456H189.58V106.392H194.068L210.612 82.456H227.156L206.476 111.232L227.42 143H210.26L194.068 118.008H189.58V143H174.268ZM228.88 143L248.064 82.456H268.92L288.192 143H272.704L269.096 131.12H247.536L244.016 143H228.88ZM250.792 119.592H265.752L258.536 95.656H257.92L250.792 119.592ZM303.108 143V94.776H286.564V82.456H335.052V94.776H318.42V143H303.108ZM342.877 143V82.456H358.189V106.216H377.813V82.456H393.125V143H377.813V118.976H358.189V143H342.877ZM430.251 143.704C425.147 143.704 420.953 143.411 417.667 142.824C414.441 142.179 411.918 141.181 410.099 139.832C408.281 138.424 406.931 136.547 406.051 134.2C405.23 131.795 404.702 128.832 404.467 125.312C404.291 121.792 404.203 117.597 404.203 112.728C404.203 107.859 404.291 103.664 404.467 100.144C404.702 96.624 405.23 93.6907 406.051 91.344C406.931 88.9387 408.281 87.0613 410.099 85.712C411.918 84.304 414.441 83.3067 417.667 82.72C420.953 82.0747 425.147 81.752 430.251 81.752C435.297 81.752 439.433 82.0747 442.659 82.72C445.945 83.3067 448.526 84.304 450.403 85.712C452.281 87.0613 453.63 88.9387 454.451 91.344C455.273 93.6907 455.801 96.624 456.035 100.144C456.27 103.664 456.387 107.859 456.387 112.728C456.387 117.597 456.27 121.792 456.035 125.312C455.801 128.832 455.273 131.795 454.451 134.2C453.63 136.547 452.281 138.424 450.403 139.832C448.526 141.181 445.945 142.179 442.659 142.824C439.433 143.411 435.297 143.704 430.251 143.704ZM430.251 131.912C432.363 131.912 434.065 131.853 435.355 131.736C436.705 131.56 437.761 131.179 438.523 130.592C439.286 129.947 439.843 128.949 440.195 127.6C440.547 126.251 440.753 124.373 440.811 121.968C440.929 119.563 440.987 116.483 440.987 112.728C440.987 108.973 440.929 105.893 440.811 103.488C440.753 101.083 440.547 99.2053 440.195 97.856C439.843 96.5067 439.286 95.5387 438.523 94.952C437.761 94.3067 436.705 93.9253 435.355 93.808C434.065 93.632 432.363 93.544 430.251 93.544C428.198 93.544 426.497 93.632 425.147 93.808C423.798 93.9253 422.742 94.3067 421.979 94.952C421.217 95.5387 420.659 96.5067 420.307 97.856C419.955 99.2053 419.721 101.083 419.603 103.488C419.545 105.893 419.515 108.973 419.515 112.728C419.515 116.483 419.545 119.563 419.603 121.968C419.721 124.373 419.955 126.251 420.307 127.6C420.659 128.949 421.217 129.947 421.979 130.592C422.742 131.179 423.798 131.56 425.147 131.736C426.497 131.853 428.198 131.912 430.251 131.912ZM467.486 143V82.456H483.238L502.95 114.928H503.39V82.456H518.086V143H503.742L482.622 107.536H482.182V143H467.486ZM576.846 143.704C572.681 143.704 569.132 143.499 566.198 143.088C563.265 142.677 560.801 141.856 558.806 140.624C556.87 139.392 555.286 137.515 554.054 134.992C553.468 133.643 552.969 131.971 552.558 129.976C552.148 127.923 551.854 125.488 551.678 122.672C551.502 119.797 551.414 116.541 551.414 112.904C551.414 109.853 551.473 107.096 551.59 104.632C551.766 102.109 552.03 99.8507 552.382 97.856C552.793 95.8027 553.321 94.0133 553.966 92.488C555.022 89.7307 556.518 87.5893 558.454 86.064C560.449 84.5387 563.001 83.4533 566.11 82.808C569.22 82.104 573.004 81.752 577.462 81.752C579.164 81.752 581.1 81.84 583.27 82.016C585.5 82.192 587.817 82.4267 590.222 82.72C592.628 82.9547 594.886 83.2773 596.998 83.688V94.688C594.886 94.4533 592.745 94.248 590.574 94.072C588.462 93.896 586.526 93.7787 584.766 93.72C583.006 93.6027 581.54 93.544 580.366 93.544C577.316 93.544 574.881 93.7493 573.062 94.16C571.244 94.512 569.865 95.2453 568.926 96.36C568.046 97.416 567.46 98.9707 567.166 101.024C566.873 103.077 566.726 105.805 566.726 109.208H567.254C567.724 108.68 568.428 108.093 569.366 107.448C570.305 106.803 571.684 106.245 573.502 105.776C575.38 105.248 577.844 104.984 580.894 104.984C584.121 104.984 586.966 105.219 589.43 105.688C591.894 106.157 593.948 107.037 595.59 108.328C597.233 109.56 598.465 111.349 599.286 113.696C600.108 116.043 600.518 119.093 600.518 122.848C600.518 126.603 600.196 129.829 599.55 132.528C598.905 135.168 597.702 137.309 595.942 138.952C594.241 140.595 591.865 141.797 588.814 142.56C585.764 143.323 581.774 143.704 576.846 143.704ZM576.142 132.088C578.137 132.088 579.75 132.029 580.982 131.912C582.273 131.736 583.27 131.413 583.974 130.944C584.678 130.416 585.177 129.653 585.47 128.656C585.764 127.6 585.91 126.221 585.91 124.52C585.91 122.701 585.764 121.264 585.47 120.208C585.177 119.093 584.678 118.301 583.974 117.832C583.329 117.304 582.361 116.981 581.07 116.864C579.78 116.688 578.137 116.6 576.142 116.6C574.03 116.6 572.358 116.717 571.126 116.952C569.894 117.187 568.956 117.597 568.31 118.184C567.724 118.712 567.342 119.416 567.166 120.296C566.99 121.117 566.902 122.144 566.902 123.376C566.902 125.488 567.049 127.131 567.342 128.304C567.694 129.477 568.222 130.357 568.926 130.944C569.63 131.472 570.569 131.795 571.742 131.912C572.916 132.029 574.382 132.088 576.142 132.088ZM610.644 143V130.24H625.692V143H610.644ZM660.437 143.704C655.919 143.704 652.165 143.469 649.173 143C646.181 142.472 643.805 141.563 642.045 140.272C640.285 138.981 638.965 137.192 638.085 134.904C637.263 132.557 636.735 129.565 636.501 125.928C636.266 122.291 636.149 117.891 636.149 112.728C636.149 107.565 636.266 103.165 636.501 99.528C636.735 95.8907 637.263 92.928 638.085 90.64C638.965 88.2933 640.285 86.4747 642.045 85.184C643.805 83.8933 646.181 83.0133 649.173 82.544C652.165 82.016 655.919 81.752 660.437 81.752C665.013 81.752 668.767 82.016 671.701 82.544C674.693 83.0133 677.069 83.8933 678.829 85.184C680.589 86.4747 681.879 88.2933 682.701 90.64C683.581 92.928 684.138 95.8907 684.373 99.528C684.666 103.165 684.813 107.565 684.813 112.728C684.813 117.891 684.666 122.291 684.373 125.928C684.138 129.565 683.581 132.557 682.701 134.904C681.879 137.192 680.589 138.981 678.829 140.272C677.069 141.563 674.693 142.472 671.701 143C668.767 143.469 665.013 143.704 660.437 143.704ZM660.437 131.912C662.197 131.912 663.634 131.853 664.749 131.736C665.863 131.56 666.743 131.179 667.389 130.592C668.034 130.005 668.503 129.037 668.797 127.688C669.09 126.28 669.266 124.373 669.325 121.968C669.442 119.563 669.501 116.483 669.501 112.728C669.501 108.973 669.442 105.893 669.325 103.488C669.266 101.083 669.09 99.2053 668.797 97.856C668.503 96.448 668.034 95.4507 667.389 94.864C666.743 94.2773 665.863 93.9253 664.749 93.808C663.693 93.632 662.255 93.544 660.437 93.544C658.735 93.544 657.298 93.632 656.125 93.808C655.01 93.9253 654.13 94.2773 653.485 94.864C652.898 95.4507 652.458 96.448 652.165 97.856C651.871 99.2053 651.666 101.083 651.549 103.488C651.49 105.893 651.461 108.973 651.461 112.728C651.461 116.483 651.49 119.563 651.549 121.968C651.666 124.373 651.871 126.28 652.165 127.688C652.458 129.037 652.898 130.005 653.485 130.592C654.13 131.179 655.01 131.56 656.125 131.736C657.239 131.853 658.677 131.912 660.437 131.912Z" fill="url(#paint0_linear_113_77)"/>
<defs>
<linearGradient id="paint0_linear_113_77" x1="4.45046" y1="64.1418" x2="679.424" y2="59.698" gradientUnits="userSpaceOnUse">
<stop stop-color="#FF0001"/>
<stop offset="0.29764" stop-color="#FFB800"/>
<stop offset="0.726004" stop-color="#FF7A00"/>
<stop offset="0.96373" stop-color="#FF002F"/>
</linearGradient>
</defs>
</svg>
